<svg xmlns="http://www.w3.org/2000/svg" style="isolation:isolate" viewBox="-1943.667 -669 2050.667 769" width="2050.667pt" height="769pt">
    <defs>
        <clipPath id="_clipPath_L16EONHZkvG21JCnd0vKCvmHr2Fd5Fss">
            <rect x="-1943.667" y="-669" width="2050.667" height="769"/>
        </clipPath>
    </defs>
    <g clip-path="url(#_clipPath_L16EONHZkvG21JCnd0vKCvmHr2Fd5Fss)">
        <g>
            <path d=" M -405.667 -669 L -533.833 -476.75 L -213.417 -28.167 L 107 -476.75 L -21.167 -669 L -405.667 -669 Z " fill="rgb(255,74,87)"/>
            <path d=" M -1815.5 -669 L -1943.667 -476.75 L -1623.25 -28.167 L -1302.833 -476.75 L -1431 -669 L -1815.5 -669 Z " fill="rgb(255,74,87)"/>
            <rect x="-1422.99" y="-572.875" width="1041.354" height="576.75" transform="matrix(1,0,0,1,0,0)" fill="rgb(255,255,255)"/>
            <path d=" M -1527.125 -669 L -309.542 -669 L -309.542 100 L -1527.125 100 L -1527.125 -669 Z  M -918.333 -476.75 C -806.258 -476.75 -715.403 -390.677 -715.403 -284.5 C -715.403 -178.323 -806.258 -92.25 -918.333 -92.25 C -1030.409 -92.25 -1121.264 -178.323 -1121.264 -284.5 C -1121.264 -390.677 -1030.409 -476.75 -918.333 -476.75 Z  M -1256.551 -540.833 C -1256.551 -470.049 -1317.121 -412.667 -1391.838 -412.667 L -1391.838 -156.333 C -1317.121 -156.333 -1256.551 -98.951 -1256.551 -28.167 L -580.116 -28.167 C -580.116 -98.951 -519.546 -156.333 -444.829 -156.333 L -444.829 -412.667 C -519.546 -412.667 -580.116 -470.049 -580.116 -540.833 L -1256.551 -540.833 Z "
                  fill="rgb(255,130,139)"/>
        </g>
    </g>
</svg>
